<mxfile host="app.diagrams.net" modified="2023-09-01T13:51:23.949Z" agent="Mozilla/5.0 (Windows NT 10.0; Win64; x64) AppleWebKit/537.36 (KHTML, like Gecko) Chrome/114.0.0.0 Safari/537.36 OPR/100.0.0.0" version="21.7.2" etag="d32ixugLz8M8vIoYiMXt" type="github">
  <diagram name="PÃ¡gina-1" id="ntlY-K4tFXHTIWEbEARU">
    <mxGraphModel>
      <root>
        <mxCell id="0" />
        <mxCell id="1" parent="0" />
      </root>
    </mxGraphModel>
  </diagram>
</mxfile>
